#N canvas 16 23 1424 799 16;
#X msg 352 61 devices;
#X msg 445 134 close;
#X text 460 64 Click here to see in pd-window which ports are available
;
#X msg 370 106 open 3;
#X obj 595 247 bng 15 250 50 0 empty empty empty 17 7 0 10 -262144
-1 -1;
#X floatatom 595 307 5 0 0 0 - - -;
#X obj 667 279 + 1;
#X obj 550 214 sel 255;
#X msg 550 247 0;
#X obj 589 386 spigot;
#X obj 646 344 == 1;
#X obj 514 386 spigot;
#X obj 571 344 == 2;
#X floatatom 589 417 5 0 0 0 - - -;
#X floatatom 514 417 5 0 0 0 - - -;
#X obj 514 447 * 100;
#X obj 514 478 +;
#X floatatom 514 511 5 0 0 0 - - -;
#X text 464 103 Replace the number of the available port after "open"
;
#X obj 352 217 t f f;
#X obj 595 279 float;
#X obj 352 187 comport 1 9600;
#X text 353 21 **install comport-v1.1.1 via 'Find Externals'**;
#X text 700 403 0-10 modern music 10-18 90s 18-25 80s 25-32 70s 32-40
60s 40 + classical;
#X obj 509 578 moses 40;
#X floatatom 807 598 5 0 0 0 - - -;
#X floatatom 811 670 5 0 0 0 - - -;
#X obj 508 625 moses 32;
#X obj 507 676 moses 25;
#X floatatom 814 741 5 0 0 0 - - -;
#X obj 506 721 moses 18;
#X floatatom 820 810 5 0 0 0 - - -;
#X obj 505 770 moses 10;
#X floatatom 826 883 5 0 0 0 - - -;
#X floatatom 829 949 5 0 0 0 - - -;
#X msg 807 558 0;
#X msg 811 634 0;
#X msg 813 704 0;
#X msg 820 778 0;
#X msg 826 845 0;
#X msg 829 914 0;
#X obj 1228 1091 t f b;
#X obj 1296 1126 int;
#X floatatom 1228 1128 5 0 0 0 - - -;
#X floatatom 1296 1157 5 0 0 0 - - -;
#X obj 1264 1196 -;
#X floatatom 1264 1225 5 0 0 0 - - -;
#X obj 913 519 t b b;
#X msg 913 565 1;
#X obj 960 606 readsf~;
#X obj 1049 650 bng 15 250 50 0 empty empty empty 17 7 0 10 -262144
-1 -1;
#X obj 959 675 dac~ 1 2;
#X obj 913 466 cyclone/onebang;
#X obj 913 444 bng 15 250 50 0 empty empty empty 17 7 0 10 -262144
-1 -1;
#X obj 913 496 bng 15 250 50 0 empty empty empty 17 7 0 10 -262144
-1 -1;
#X obj 1061 438 bng 15 250 50 0 empty empty empty 17 7 0 10 -262144
-1 -1;
#X obj 1080 763 t b b;
#X msg 1080 809 1;
#X obj 1150 843 readsf~;
#X obj 1239 887 bng 15 250 50 0 empty empty empty 17 7 0 10 -262144
-1 -1;
#X obj 1150 872 *~ 0.2;
#X obj 1149 912 dac~ 1 2;
#X obj 1146 743 cyclone/onebang;
#X obj 1128 716 bng 15 250 50 0 empty empty empty 17 7 0 10 -262144
-1 -1;
#X obj 1080 740 bng 15 250 50 0 empty empty empty 17 7 0 10 -262144
-1 -1;
#X obj 1263 700 bng 15 250 50 0 empty empty empty 17 7 0 10 -262144
-1 -1;
#X msg 1149 802 open 60s.wav;
#X obj 970 1023 t b b;
#X msg 970 1069 1;
#X obj 1040 1103 readsf~;
#X obj 1129 1147 bng 15 250 50 0 empty empty empty 17 7 0 10 -262144
-1 -1;
#X obj 1039 1172 dac~ 1 2;
#X msg 971 1108 0;
#X obj 1036 1003 cyclone/onebang;
#X obj 1036 965 bng 15 250 50 0 empty empty empty 17 7 0 10 -262144
-1 -1;
#X obj 970 1000 bng 15 250 50 0 empty empty empty 17 7 0 10 -262144
-1 -1;
#X obj 1153 960 bng 15 250 50 0 empty empty empty 17 7 0 10 -262144
-1 -1;
#X msg 959 565 open classic.wav;
#X msg 1039 1062 open 70s.wav;
#X obj 663 1057 t b b;
#X msg 663 1103 1;
#X obj 733 1137 readsf~;
#X obj 822 1181 bng 15 250 50 0 empty empty empty 17 7 0 10 -262144
-1 -1;
#X obj 732 1206 dac~ 1 2;
#X msg 664 1142 0;
#X obj 729 1037 cyclone/onebang;
#X obj 711 1010 bng 15 250 50 0 empty empty empty 17 7 0 10 -262144
-1 -1;
#X obj 663 1034 bng 15 250 50 0 empty empty empty 17 7 0 10 -262144
-1 -1;
#X obj 800 1003 bng 15 250 50 0 empty empty empty 17 7 0 10 -262144
-1 -1;
#X msg 732 1096 open 80s.wav;
#X text 400 576 classic;
#X text 406 625 60s;
#X text 406 675 70s;
#X text 407 724 80s;
#X text 407 773 90s;
#X msg 914 604 0;
#X msg 1081 848 0;
#X obj 382 1066 t b b;
#X msg 382 1112 1;
#X obj 452 1146 readsf~;
#X obj 541 1190 bng 15 250 50 0 empty empty empty 17 7 0 10 -262144
-1 -1;
#X obj 451 1215 dac~ 1 2;
#X msg 383 1151 0;
#X obj 448 1046 cyclone/onebang;
#X obj 430 1019 bng 15 250 50 0 empty empty empty 17 7 0 10 -262144
-1 -1;
#X obj 382 1043 bng 15 250 50 0 empty empty empty 17 7 0 10 -262144
-1 -1;
#X obj 519 1012 bng 15 250 50 0 empty empty empty 17 7 0 10 -262144
-1 -1;
#X msg 451 1105 open 90s.wav;
#X obj 100 1043 t b b;
#X msg 100 1089 1;
#X obj 170 1123 readsf~;
#X obj 259 1167 bng 15 250 50 0 empty empty empty 17 7 0 10 -262144
-1 -1;
#X obj 170 1152 *~ 0.2;
#X obj 169 1192 dac~ 1 2;
#X msg 101 1128 0;
#X obj 166 1023 cyclone/onebang;
#X obj 148 996 bng 15 250 50 0 empty empty empty 17 7 0 10 -262144
-1 -1;
#X obj 100 1020 bng 15 250 50 0 empty empty empty 17 7 0 10 -262144
-1 -1;
#X obj 237 989 bng 15 250 50 0 empty empty empty 17 7 0 10 -262144
-1 -1;
#X msg 169 1082 open 00s.wav;
#X obj 452 1175 *~ 0.4;
#X obj 733 1166 *~ 0.4;
#X obj 1040 1132 *~ 0.3;
#X obj 960 635 *~ 0.5;
#X connect 0 0 21 0;
#X connect 1 0 21 0;
#X connect 3 0 21 0;
#X connect 4 0 20 0;
#X connect 5 0 12 0;
#X connect 5 0 10 0;
#X connect 6 0 20 1;
#X connect 7 0 8 0;
#X connect 7 1 4 0;
#X connect 8 0 20 0;
#X connect 9 0 13 0;
#X connect 10 0 9 1;
#X connect 11 0 14 0;
#X connect 12 0 11 1;
#X connect 13 0 16 1;
#X connect 14 0 15 0;
#X connect 15 0 16 0;
#X connect 16 0 17 0;
#X connect 17 0 24 0;
#X connect 19 0 11 0;
#X connect 19 0 9 0;
#X connect 19 1 7 0;
#X connect 20 0 5 0;
#X connect 20 0 6 0;
#X connect 21 0 19 0;
#X connect 24 0 27 0;
#X connect 24 0 35 0;
#X connect 24 1 25 0;
#X connect 24 1 36 0;
#X connect 24 1 38 0;
#X connect 24 1 37 0;
#X connect 24 1 39 0;
#X connect 24 1 40 0;
#X connect 24 1 53 0;
#X connect 24 1 65 0;
#X connect 24 1 76 0;
#X connect 24 1 88 0;
#X connect 24 1 106 0;
#X connect 24 1 118 0;
#X connect 27 0 28 0;
#X connect 27 0 36 0;
#X connect 27 1 26 0;
#X connect 27 1 37 0;
#X connect 27 1 63 0;
#X connect 27 1 76 0;
#X connect 27 1 55 0;
#X connect 27 1 88 0;
#X connect 27 1 106 0;
#X connect 27 1 118 0;
#X connect 28 0 30 0;
#X connect 28 0 37 0;
#X connect 28 1 29 0;
#X connect 28 1 38 0;
#X connect 28 1 65 0;
#X connect 28 1 74 0;
#X connect 28 1 55 0;
#X connect 28 1 88 0;
#X connect 28 1 106 0;
#X connect 28 1 118 0;
#X connect 30 0 32 0;
#X connect 30 0 38 0;
#X connect 30 1 31 0;
#X connect 30 1 39 0;
#X connect 30 1 65 0;
#X connect 30 1 76 0;
#X connect 30 1 55 0;
#X connect 30 1 86 0;
#X connect 30 1 106 0;
#X connect 30 1 118 0;
#X connect 32 0 34 0;
#X connect 32 0 39 0;
#X connect 32 0 65 0;
#X connect 32 0 76 0;
#X connect 32 0 55 0;
#X connect 32 0 88 0;
#X connect 32 0 106 0;
#X connect 32 0 116 0;
#X connect 32 1 33 0;
#X connect 32 1 40 0;
#X connect 32 1 65 0;
#X connect 32 1 76 0;
#X connect 32 1 55 0;
#X connect 32 1 88 0;
#X connect 32 1 104 0;
#X connect 32 1 118 0;
#X connect 35 0 25 0;
#X connect 36 0 26 0;
#X connect 37 0 29 0;
#X connect 38 0 31 0;
#X connect 39 0 33 0;
#X connect 40 0 34 0;
#X connect 41 0 43 0;
#X connect 41 1 42 0;
#X connect 42 0 44 0;
#X connect 43 0 42 1;
#X connect 43 0 45 0;
#X connect 44 0 45 1;
#X connect 45 0 46 0;
#X connect 47 0 48 0;
#X connect 47 1 77 0;
#X connect 48 0 49 0;
#X connect 49 0 123 0;
#X connect 49 1 50 0;
#X connect 52 0 54 0;
#X connect 53 0 52 0;
#X connect 54 0 47 0;
#X connect 55 0 52 1;
#X connect 55 0 95 0;
#X connect 56 0 57 0;
#X connect 56 1 66 0;
#X connect 57 0 58 0;
#X connect 58 0 60 0;
#X connect 58 1 59 0;
#X connect 60 0 61 0;
#X connect 60 0 61 1;
#X connect 62 0 64 0;
#X connect 63 0 62 0;
#X connect 64 0 56 0;
#X connect 65 0 62 1;
#X connect 65 0 96 0;
#X connect 66 0 58 0;
#X connect 67 0 68 0;
#X connect 67 1 78 0;
#X connect 68 0 69 0;
#X connect 69 0 122 0;
#X connect 69 1 70 0;
#X connect 72 0 69 0;
#X connect 73 0 75 0;
#X connect 74 0 73 0;
#X connect 75 0 67 0;
#X connect 76 0 73 1;
#X connect 76 0 72 0;
#X connect 77 0 49 0;
#X connect 78 0 69 0;
#X connect 79 0 80 0;
#X connect 79 1 89 0;
#X connect 80 0 81 0;
#X connect 81 0 121 0;
#X connect 81 1 82 0;
#X connect 84 0 81 0;
#X connect 85 0 87 0;
#X connect 86 0 85 0;
#X connect 87 0 79 0;
#X connect 88 0 85 1;
#X connect 88 0 84 0;
#X connect 89 0 81 0;
#X connect 95 0 49 0;
#X connect 96 0 58 0;
#X connect 97 0 98 0;
#X connect 97 1 107 0;
#X connect 98 0 99 0;
#X connect 99 0 120 0;
#X connect 99 1 100 0;
#X connect 102 0 99 0;
#X connect 103 0 105 0;
#X connect 104 0 103 0;
#X connect 105 0 97 0;
#X connect 106 0 103 1;
#X connect 106 0 102 0;
#X connect 107 0 99 0;
#X connect 108 0 109 0;
#X connect 108 1 119 0;
#X connect 109 0 110 0;
#X connect 110 0 112 0;
#X connect 110 1 111 0;
#X connect 112 0 113 0;
#X connect 112 0 113 1;
#X connect 114 0 110 0;
#X connect 115 0 117 0;
#X connect 116 0 115 0;
#X connect 117 0 108 0;
#X connect 118 0 115 1;
#X connect 118 0 114 0;
#X connect 119 0 110 0;
#X connect 120 0 101 0;
#X connect 120 0 101 1;
#X connect 121 0 83 0;
#X connect 121 0 83 1;
#X connect 122 0 71 0;
#X connect 122 0 71 1;
#X connect 123 0 51 0;
#X connect 123 0 51 1;
